<?xml version="1.0" encoding="UTF-8"?>
<svg width="69px" height="81px" viewBox="0 0 69 81" version="1.1" xmlns="http://www.w3.org/2000/svg" xmlns:xlink="http://www.w3.org/1999/xlink">
    <!-- Generator: Sketch 48.2 (47327) - http://www.bohemiancoding.com/sketch -->
    <title>Cadeau</title>
    <desc>Created with Sketch.</desc>
    <defs>
        <rect id="path-1" x="0" y="22" width="69" height="58"></rect>
    </defs>
    <g id="Mariage" stroke="none" stroke-width="1" fill="none" fill-rule="evenodd" transform="translate(-679.000000, -828.000000)">
        <g id="Cadeau" transform="translate(679.000000, 829.000000)">
            <g id="Rectangle">
                <use fill="#FFFFFF" fill-rule="evenodd" xlink:href="#path-1"></use>
                <rect stroke="#CAA278" stroke-width="1" x="0.5" y="22.5" width="68" height="57"></rect>
            </g>
            <path d="M34.0253364,23 C33.7053926,23 36.4970023,22.0529521 37.8056471,20.5196056 C38.1954763,20.0628405 38.6421241,19.4527868 38.8550633,18.9010009 C39.188793,18.0362126 38.9220148,16.8656829 38.3025475,17.0125817 C37.5887026,17.1818611 36.4273381,17.834777 35.7832977,18.6173715 C34.6971305,19.9372084 34.5746767,22.6229761 34.3222706,22.8092221" id="Path-4" stroke="#CAA278"></path>
            <path d="M34.4778092,21.9789036 C33.5317882,21.4578256 21.3465344,16.9186569 13.3389061,11.2980919 C10.1884584,9.08678847 6.13056276,4.29166457 4.45904529,1.74887186 C3.81923704,0.775564789 4.03344833,0.0509409607 4.03818136,0.0474483221 C4.04626725,0.0414815182 4.92763125,-0.143035816 6.51592061,0.258542192 C9.16815263,0.929124064 13.7245621,2.69760993 18.9864174,5.73153268 C21.4531674,7.15383119 25.513576,10.0926024 30.5186617,15.7973772 C31.0030918,16.3495285 34.2368382,21.5350071 34.2834927,21.5928609 C34.3410549,21.6642406 31.8113577,20.7398312 30.138289,19.4197376 C29.5583228,18.9621295 28.8405291,18.5555434 28.5409284,18.081826 C28.1556933,17.4727067 28.2749494,16.840189 28.2920502,16.771256 C28.5481628,15.7388669 31.5295329,16.3031259 33.0539681,17.8232534 C34.4880212,19.2532543 34.4778092,21.6182799 34.4778092,21.5456056 C34.4778092,21.352892 33.514892,21.525013 32.9171566,21.1551427 C32.5070606,20.9013811 33.8546553,22.0016118 34.0200328,21.7159042 C34.1841065,21.4324491 42.9729106,9.22159133 48.4695921,5.13123448 C54.6999141,0.4949389 60.465441,0.0852300528 60.9818072,0.507306596 C61.2322315,0.712002782 58.8983895,5.09199506 53.9148515,9.48817029 C48.2689915,14.4686059 39.8679113,19.525694 39.7943087,19.5794806 C39.2807142,19.9548004 38.7672831,20.2834102 38.2729,20.5674082 C36.3442377,21.675327 34.7054683,22.1043005 34.4778092,21.9789036 Z" id="Path-2" stroke="#CAA278"></path>
        </g>
    </g>
</svg>