<?xml version="1.0" encoding="UTF-8"?>
<svg width="717px" height="349px" viewBox="0 0 717 349" version="1.1" xmlns="http://www.w3.org/2000/svg" xmlns:xlink="http://www.w3.org/1999/xlink">
    <!-- Generator: Sketch 47.1 (45422) - http://www.bohemiancoding.com/sketch -->
    <title>Envelope</title>
    <desc>Created with Sketch.</desc>
    <defs>
        <path d="M8.83604316,1.08169485 C22.3043139,2.4969505 31.7879072,4.68241196 37.2868231,7.63807924 C43.9191671,11.2029641 149.611031,79.2694102 354.362416,211.837417 C542.435884,86.5005646 641.947158,20.0831284 652.896237,12.5851089 C662.629224,5.91987944 678.415501,1.94493355 700.255068,0.660271187 L700.255068,0.660276454 C704.665719,0.400830037 708.451581,3.76604626 708.711028,8.17669727 C708.720229,8.33311805 708.724832,8.48977539 708.724832,8.64646656 L708.724832,431.32039 L708.724832,431.32039 C708.724832,435.738668 705.14311,439.32039 700.724832,439.32039 L8,439.32039 L8,439.32039 C3.581722,439.32039 2.15170922e-12,435.738668 2.15116813e-12,431.32039 L2.16909066e-12,9.0378939 L-4.4761846e-06,9.0378939 C-4.4761846e-06,4.61961343 3.58171953,1.03788943 8,1.03788943 C8.2792546,1.03788943 8.55831767,1.05251125 8.83604316,1.08169485 Z" id="path-1"></path>
        <filter x="-1.0%" y="-1.1%" width="102.0%" height="103.2%" filterUnits="objectBoundingBox" id="filter-2">
            <feOffset dx="0" dy="2" in="SourceAlpha" result="shadowOffsetOuter1"></feOffset>
            <feGaussianBlur stdDeviation="2" in="shadowOffsetOuter1" result="shadowBlurOuter1"></feGaussianBlur>
            <feComposite in="shadowBlurOuter1" in2="SourceAlpha" operator="out" result="shadowBlurOuter1"></feComposite>
            <feColorMatrix values="0 0 0 0 0   0 0 0 0 0   0 0 0 0 0  0 0 0 0.5 0" type="matrix" in="shadowBlurOuter1"></feColorMatrix>
        </filter>
    </defs>
    <g id="Page-1" stroke="none" stroke-width="1" fill="none" fill-rule="evenodd">
        <g id="Accueil" transform="translate(-363.000000, -675.000000)">
            <g id="Envelope" transform="translate(367.000000, 677.000000)">
                <g id="Rectangle-2">
                    <use fill="black" fill-opacity="1" filter="url(#filter-2)" xlink:href="#path-1"></use>
                    <use fill="#F3F3F3" fill-rule="evenodd" xlink:href="#path-1"></use>
                    <path stroke="#979797" stroke-width="1" d="M8.7837905,1.57895701 C8.52342284,1.55159739 8.2618012,1.53788943 8,1.53788943 C3.85786134,1.53788943 0.499995804,4.89575626 0.5,9.0378939 L0.5,431.32039 C0.5,435.462526 3.85786438,438.82039 8,438.82039 L700.724832,438.82039 C704.866968,438.82039 708.224832,435.462526 708.224832,431.32039 L708.224832,8.64646656 C708.224832,8.4995686 708.220516,8.35270234 708.21189,8.20605787 C707.968659,4.0710734 704.419414,0.916182299 700.284428,1.1594084 C678.527317,2.43922054 662.822203,6.39372972 653.178747,12.9976475 C642.226797,20.4976328 542.720375,86.9118311 354.639697,212.253489 L354.366379,212.435635 L354.090672,212.257126 C149.429389,79.7474557 43.6621479,11.6324663 37.0501015,8.07849144 C31.6221758,5.16098139 22.192571,2.98796139 8.7837905,1.57895701 Z"></path>
                </g>
                <path d="M2.95302013,439.836308 C1.78181348,426.117666 3.30473294,417.534254 7.52177852,414.08607 C177.944644,274.735114 294.051504,201.717628 326.456038,175.032438 C344.921209,157.432296 362.446559,157.775539 382.358912,174.7356 C413.839205,200.10983 531.118208,280.685582 694.392294,414.08607 C701.52974,419.917607 705.885306,428.50102 707.458992,439.836308 L2.95302013,439.836308 Z" id="Path-3" stroke="#979797" fill="#F3F3F3"></path>
            </g>
        </g>
    </g>
</svg>